# xmcd
#
# Track frame offsets:
#       182
#       13525
#       22592
#       35775
#       46030
#       59720
#       70940
#       89960
#       101532
#       111957
#       123387
#       136062
#       149360
#       161035
#       174165
#       191055
#
# Disc length: 2699 seconds
#
# Revision: 1
# Processed by: cddbd v1.5.1PL0 Copyright (c) Steve Scherf et al.
# Submitted via: WaveLab 4.01
#
DISCID=de0a8910
DTITLE=Vincent Menweg - Accordéon Cocktail
DYEAR=1900
DGENRE=
TTITLE0=Piste 01
TTITLE1=Piste 02
TTITLE2=Piste 03
TTITLE3=Piste 04
TTITLE4=Piste 05
TTITLE5=Piste 06
TTITLE6=Piste 07
TTITLE7=Piste 08
TTITLE8=Piste 09
TTITLE9=Piste 10
TTITLE10=Piste 11
TTITLE11=Piste 12
TTITLE12=Piste 13
TTITLE13=Piste 14
TTITLE14=Piste 15
TTITLE15=Piste 16
EXTD=
EXTT0=
EXTT1=
EXTT2=
EXTT3=
EXTT4=
EXTT5=
EXTT6=
EXTT7=
EXTT8=
EXTT9=
EXTT10=
EXTT11=
EXTT12=
EXTT13=
EXTT14=
EXTT15=
PLAYORDER=
